<svg xmlns:dc="http://purl.org/dc/elements/1.1/" xmlns:cc="http://creativecommons.org/ns#" xmlns:rdf="http://www.w3.org/1999/02/22-rdf-syntax-ns#" xmlns:svg="http://www.w3.org/2000/svg" xmlns="http://www.w3.org/2000/svg" xmlns:sodipodi="http://sodipodi.sourceforge.net/DTD/sodipodi-0.dtd" xmlns:inkscape="http://www.inkscape.org/namespaces/inkscape" viewBox="0 0 373.06899 618.2425" version="1.1" x="0px" y="0px"><g transform="translate(-240.79302,-371.6545)"><path style="" d="m 427.28732,371.65452 a 51.491407,51.491407 0 0 0 -51.4587,51.459 51.491407,51.491407 0 0 0 51.4587,51.538 51.491407,51.491407 0 0 0 51.538,-51.538 51.491407,51.491407 0 0 0 -51.538,-51.459 z m -120.7962,0.245 c -2.4945,0.385 -4.9937,1.261 -7.2823,2.669 -9.1133,5.634 -11.9448,17.507 -6.3101,26.62 l 82.9299,134.712 0,66.021 10.762,-1.78 c 27.0085,-4.515 54.3837,-4.515 81.3934,0 l 10.8413,1.78 0,-66.102 82.931,-134.631 c 5.6336,-9.113 2.7606,-20.986 -6.31,-26.62 -9.1559,-5.592 -21.1077,-2.803 -26.6999,6.312 l -70.8762,115.132 -61.0049,0 -70.9567,-115.132 c -4.2248,-6.866 -11.9365,-10.137 -19.4175,-8.981 z m 120.7962,231.316 c -13.2458,0 -26.4538,1.123 -39.5648,3.318 l -146.9295,24.758 0,21.037 146.9295,-24.84 c 26.222,-4.39 52.9869,-4.39 79.2089,0 l 146.9306,24.84 0,-21.037 -146.9306,-24.758 c -13.1099,-2.195 -26.3983,-3.318 -39.6441,-3.318 z m 0,27.429 c -12.878,0 -25.7335,1.102 -38.5133,3.236 l -12.9454,2.184 0,35.439 c 0,0.03 0,0.12 0,0.159 l 0,170.637 c 0,13.173 10.6957,23.949 23.8682,23.949 13.1737,0 23.8683,-10.735 23.8683,-23.949 l 0,-158.581 7.5248,0 0,60.52 c 0,13.173 10.6946,23.867 23.8671,23.867 13.1737,0 23.8683,-10.694 23.8683,-23.867 l 0,-72.576 0,-0.08 0,-35.518 -12.9454,-2.183 c -12.8,-2.134 -25.7146,-3.238 -38.5926,-3.238 z" fill="#000000"/></g><text x="0" y="509.594" fill="#000000" font-size="5px" font-weight="bold" font-family="'Helvetica Neue', Helvetica, Arial-Unicode, Arial, Sans-serif">Created by Hopkins</text><text x="0" y="514.594" fill="#000000" font-size="5px" font-weight="bold" font-family="'Helvetica Neue', Helvetica, Arial-Unicode, Arial, Sans-serif">from the Noun Project</text></svg>